<svg width="800" height="520" viewBox="0 0 800 520" fill="none" xmlns="http://www.w3.org/2000/svg">
  <rect width="800" height="520" rx="24" fill="#FAFAFA"/>
  <rect x="34" y="34" width="732" height="452" rx="18" fill="white" stroke="#E8E8E8"/>
  <rect x="64" y="72" width="672" height="54" rx="12" fill="#F5F5F5" stroke="#E8E8E8"/>
  <rect x="64" y="146" width="240" height="300" rx="14" fill="#F5F5F5" stroke="#E8E8E8"/>
  <rect x="324" y="146" width="412" height="126" rx="14" fill="#F5F5F5" stroke="#E8E8E8"/>
  <rect x="324" y="292" width="412" height="154" rx="14" fill="#F5F5F5" stroke="#E8E8E8"/>
  <rect x="92" y="172" width="184" height="14" rx="7" fill="#0A0A0A" opacity="0.9"/>
  <rect x="92" y="206" width="150" height="10" rx="5" fill="#B8B8B8"/>
  <rect x="92" y="242" width="132" height="10" rx="5" fill="#EFEFEF"/>
  <rect x="356" y="176" width="220" height="12" rx="6" fill="#0A0A0A" opacity="0.9"/>
  <rect x="356" y="206" width="180" height="10" rx="5" fill="#B8B8B8"/>
  <rect x="356" y="234" width="160" height="10" rx="5" fill="#EFEFEF"/>
  <rect x="356" y="324" width="180" height="12" rx="6" fill="#0A0A0A" opacity="0.9"/>
  <rect x="356" y="356" width="150" height="10" rx="5" fill="#B8B8B8"/>
  <rect x="356" y="386" width="140" height="10" rx="5" fill="#EFEFEF"/>
  <text x="64" y="468" fill="#0A0A0A" font-family="Inter, Arial, sans-serif" font-size="14" font-weight="600">Wireframe 3</text>
  <text x="64" y="488" fill="#555555" font-family="Inter, Arial, sans-serif" font-size="12">Product detail page</text>
</svg>