<svg width="800" height="520" viewBox="0 0 800 520" fill="none" xmlns="http://www.w3.org/2000/svg">
  <rect width="800" height="520" rx="24" fill="#FAFAFA"/>
  <rect x="34" y="34" width="732" height="452" rx="18" fill="white" stroke="#E8E8E8"/>
  <rect x="64" y="72" width="672" height="54" rx="12" fill="#F5F5F5" stroke="#E8E8E8"/>
  <rect x="64" y="146" width="672" height="54" rx="12" fill="#F5F5F5" stroke="#E8E8E8"/>
  <rect x="64" y="220" width="328" height="180" rx="14" fill="#F5F5F5" stroke="#E8E8E8"/>
  <rect x="408" y="220" width="328" height="180" rx="14" fill="#F5F5F5" stroke="#E8E8E8"/>
  <rect x="92" y="248" width="110" height="12" rx="6" fill="#0A0A0A" opacity="0.9"/>
  <rect x="92" y="278" width="180" height="10" rx="5" fill="#B8B8B8"/>
  <rect x="92" y="306" width="160" height="10" rx="5" fill="#EFEFEF"/>
  <rect x="436" y="248" width="110" height="12" rx="6" fill="#0A0A0A" opacity="0.9"/>
  <rect x="436" y="278" width="180" height="10" rx="5" fill="#B8B8B8"/>
  <rect x="436" y="306" width="160" height="10" rx="5" fill="#EFEFEF"/>
  <rect x="92" y="348" width="272" height="12" rx="6" fill="#D8D8D8"/>
  <rect x="436" y="348" width="260" height="12" rx="6" fill="#D8D8D8"/>
  <text x="64" y="428" fill="#0A0A0A" font-family="Inter, Arial, sans-serif" font-size="14" font-weight="600">Wireframe 4</text>
  <text x="64" y="448" fill="#555555" font-family="Inter, Arial, sans-serif" font-size="12">Skin Talk / community forum</text>
</svg>